<svg id="Capa_1" xmlns="http://www.w3.org/2000/svg" xmlns:i="http://ns.adobe.com/AdobeIllustrator/10.0/" version="1.1" viewBox="3 0 1394 206" xmlns:c2pa="http://c2pa.org/manifest"><metadata><c2pa:manifest>AAAWgmp1bWIAAAAeanVtZGMycGEAEQAQgAAAqgA4m3EDYzJwYQAAABZcanVtYgAAAEdqdW1kYzJtYQARABCAAACqADibcQN1cm46YzJwYTo4NGY1MmNlMS00OTk2LTQ2MzMtOTE4OS0zODMzYzU4MTA3YWQAAAADl2p1bWIAAAApanVtZGMyYXMAEQAQgAAAqgA4m3EDYzJwYS5hc3NlcnRpb25zAAAAALxqdW1iAAAARGp1bWRjYm9yABEAEIAAAKoAOJtxE2MycGEuaW5ncmVkaWVudC52MwAAAAAYYzJzaDEut9Q6QEWMZbhcJ7Fn3KsAAABwY2JvcqNpZGM6Zm9ybWF0bWltYWdlL3N2Zyt4bWxqaW5zdGFuY2VJRHgseG1wOmlpZDo5NjYxZjE5Yi1lZDUzLTRmNmUtYWZmNi0xYWY3Nzc2MTYwMjJscmVsYXRpb25zaGlwaHBhcmVudE9mAAAB4mp1bWIAAABBanVtZGNib3IAEQAQgAAAqgA4m3ETYzJwYS5hY3Rpb25zLnYyAAAAABhjMnNoXMXf9Ad+LR+pH5Qwd/nmdQAAAZljYm9yomdhY3Rpb25zgqJmYWN0aW9ua2MycGEub3BlbmVkanBhcmFtZXRlcnOha2luZ3JlZGllbnRzgaJjdXJseC1zZWxmI2p1bWJmPWMycGEuYXNzZXJ0aW9ucy9jMnBhLmluZ3JlZGllbnQudjNkaGFzaFggEtClixbwXJ5WKRwVyX34vuTbVInv4lghiXGnNz/JGWKkZmFjdGlvbngdY29tLmFudGhyb3BpYy5jbGF1ZGUucHJvdmlkZWRqcGFyYW1ldGVyc6F4H2NvbS5hbnRocm9waWMub3JpZ2luLWNvbmZpZGVuY2VndW5rbm93bmtkZXNjcmlwdGlvbnhmQ2xhdWRlIHByb3ZpZGVkIHRoaXMgZmlsZSBhdCB0aGUgcmVxdWVzdCBvZiBhIHVzZXIgYW5kIG1heSBoYXZlIGNyZWF0ZWQgb3IgbW9kaWZpZWQgdGhlIGZpbGUgY29udGVudHMubXNvZnR3YXJlQWdlbnShZG5hbWVmQ2xhdWRlcmFsbEFjdGlvbnNJbmNsdWRlZPUAAADIanVtYgAAAEBqdW1kY2JvcgARABCAAACqADibcRNjMnBhLmhhc2guZGF0YQAAAAAYYzJzaDW70K2CMnI9qb3iTGDMvtwAAACAY2JvcqVjYWxnZnNoYTI1NmNwYWRNAAAAAAAAAAAAAAAAAGRoYXNoWCB6AM2/IO1AQ3HfmIvIkD6ra7/PlZtLeDUjHLK0nAlQNGRuYW1lbmp1bWJmIG1hbmlmZXN0amV4Y2x1c2lvbnOBomVzdGFydBjNZmxlbmd0aBkeBAAAAj5qdW1iAAAAJ2p1bWRjMmNsABEAEIAAAKoAOJtxA2MycGEuY2xhaW0udjIAAAACD2Nib3KlY2FsZ2ZzaGEyNTZpc2lnbmF0dXJleE1zZWxmI2p1bWJmPS9jMnBhL3VybjpjMnBhOjg0ZjUyY2UxLTQ5OTYtNDYzMy05MTg5LTM4MzNjNTgxMDdhZC9jMnBhLnNpZ25hdHVyZWppbnN0YW5jZUlEeCx4bXA6aWlkOjc2Yzk4NWNmLTJlZTAtNGExZi04MDY0LTM0NDZmODBmOWMwMHJjcmVhdGVkX2Fzc2VydGlvbnODomN1cmx4LXNlbGYjanVtYmY9YzJwYS5hc3NlcnRpb25zL2MycGEuaW5ncmVkaWVudC52M2RoYXNoWCAS0KWLFvBcnlYpHBXJffi+5NtUie/iWCGJcac3P8kZYqJjdXJseCpzZWxmI2p1bWJmPWMycGEuYXNzZXJ0aW9ucy9jMnBhLmFjdGlvbnMudjJkaGFzaFggoIe32iDebZQILHC+tXY95fVNQ16gHR8IAMod6NYLFvaiY3VybHgpc2VsZiNqdW1iZj1jMnBhLmFzc2VydGlvbnMvYzJwYS5oYXNoLmRhdGFkaGFzaFggFwlBndCNpciIa2vblby8WAUeMFwtYMm3f9DehniiwC50Y2xhaW1fZ2VuZXJhdG9yX2luZm+jZG5hbWVvQW50aHJvcGljIEZpbGVzZ3ZlcnNpb25lMS4wLjBrc3BlY1ZlcnNpb25lMi40LjAAABA4anVtYgAAAChqdW1kYzJjcwARABCAAACqADibcQNjMnBhLnNpZ25hdHVyZQAAABAIY2JvctKEWQISogEmGCFZAgowggIGMIIBjaADAgECAhRA5aAK7sI50L64g/oGQgU9Z1UTADAKBggqhkjOPQQDAzBJMRcwFQYDVQQKEw5BbnRocm9waWMsIFBCQzEuMCwGA1UEAxMlQW50aHJvcGljIENvbnRlbnQgQ3JlZGVudGlhbHMgUm9vdCBDQTAeFw0yNjA4MDcxODQzNTZaFw0yODA4MDYxOTQzNTZaMEQxFzAVBgNVBAoTDkFudGhyb3BpYywgUEJDMSkwJwYDVQQDEyBBbnRocm9waWMgQ2xhdWRlIENvbnRlbnQgU2lnbmluZzBZMBMGByqGSM49AgEGCCqGSM49AwEHA0IABJh6CmvLUBgFFNU0vUKlOVtE6djd17L5SuwX0LemFisBM3dkd/3cyjxFA3Qo5S46fX0/ihY0VZ7mfb9KF703t5OjWDBWMA4GA1UdDwEB/wQEAwIHgDAVBgNVHSUEDjAMBgorBgEEAYPoXgIBMAwGA1UdEwEB/wQCMAAwHwYDVR0jBBgwFoAUzlHiBIFOZFsj+OPEz5o+nMHXXMIwCgYIKoZIzj0EAwMDZwAwZAIwMXMdFJ4BetLLVY7ORuE9noqbbAZOZn/aArXyTwFAZfKrPzxF2vPoJNf1+UCdg1XGAjBwX1zd9WGqYkqmL5SFqw1QySjr1zJfpJM9+1rdDwSPLMOPOjKuiXjoU/pUUeG9RwmhY3BhZFkNngAAAAAAAAAAAAAAAAAAAAAAAAAAAAAAAAAAAAAAAAAAAAAAAAAAAAAAAAAAAAAAAAAAAAAAAAAAAAAAAAAAAAAAAAAAAAAAAAAAAAAAAAAAAAAAAAAAAAAAAAAAAAAAAAAAAAAAAAAAAAAAAAAAAAAAAAAAAAAAAAAAAAAAAAAAAAAAAAAAAAAAAAAAAAAAAAAAAAAAAAAAAAAAAAAAAAAAAAAAAAAAAAAAAAAAAAAAAAAAAAAAAAAAAAAAAAAAAAAAAAAAAAAAAAAAAAAAAAAAAAAAAAAAAAAAAAAAAAAAAAAAAAAAAAAAAAAAAAAAAAAAAAAAAAAAAAAAAAAAAAAAAAAAAAAAAAAAAAAAAAAAAAAAAAAAAAAAAAAAAAAAAAAAAAAAAAAAAAAAAAAAAAAAAAAAAAAAAAAAAAAAAAAAAAAAAAAAAAAAAAAAAAAAAAAAAAAAAAAAAAAAAAAAAAAAAAAAAAAAAAAAAAAAAAAAAAAAAAAAAAAAAAAAAAAAAAAAAAAAAAAAAAAAAAAAAAAAAAAAAAAAAAAAAAAAAAAAAAAAAAAAAAAAAAAAAAAAAAAAAAAAAAAAAAAAAAAAAAAAAAAAAAAAAAAAAAAAAAAAAAAAAAAAAAAAAAAAAAAAAAAAAAAAAAAAAAAAAAAAAAAAAAAAAAAAAAAAAAAAAAAAAAAAAAAAAAAAAAAAAAAAAAAAAAAAAAAAAAAAAAAAAAAAAAAAAAAAAAAAAAAAAAAAAAAAAAAAAAAAAAAAAAAAAAAAAAAAAAAAAAAAAAAAAAAAAAAAAAAAAAAAAAAAAAAAAAAAAAAAAAAAAAAAAAAAAAAAAAAAAAAAAAAAAAAAAAAAAAAAAAAAAAAAAAAAAAAAAAAAAAAAAAAAAAAAAAAAAAAAAAAAAAAAAAAAAAAAAAAAAAAAAAAAAAAAAAAAAAAAAAAAAAAAAAAAAAAAAAAAAAAAAAAAAAAAAAAAAAAAAAAAAAAAAAAAAAAAAAAAAAAAAAAAAAAAAAAAAAAAAAAAAAAAAAAAAAAAAAAAAAAAAAAAAAAAAAAAAAAAAAAAAAAAAAAAAAAAAAAAAAAAAAAAAAAAAAAAAAAAAAAAAAAAAAAAAAAAAAAAAAAAAAAAAAAAAAAAAAAAAAAAAAAAAAAAAAAAAAAAAAAAAAAAAAAAAAAAAAAAAAAAAAAAAAAAAAAAAAAAAAAAAAAAAAAAAAAAAAAAAAAAAAAAAAAAAAAAAAAAAAAAAAAAAAAAAAAAAAAAAAAAAAAAAAAAAAAAAAAAAAAAAAAAAAAAAAAAAAAAAAAAAAAAAAAAAAAAAAAAAAAAAAAAAAAAAAAAAAAAAAAAAAAAAAAAAAAAAAAAAAAAAAAAAAAAAAAAAAAAAAAAAAAAAAAAAAAAAAAAAAAAAAAAAAAAAAAAAAAAAAAAAAAAAAAAAAAAAAAAAAAAAAAAAAAAAAAAAAAAAAAAAAAAAAAAAAAAAAAAAAAAAAAAAAAAAAAAAAAAAAAAAAAAAAAAAAAAAAAAAAAAAAAAAAAAAAAAAAAAAAAAAAAAAAAAAAAAAAAAAAAAAAAAAAAAAAAAAAAAAAAAAAAAAAAAAAAAAAAAAAAAAAAAAAAAAAAAAAAAAAAAAAAAAAAAAAAAAAAAAAAAAAAAAAAAAAAAAAAAAAAAAAAAAAAAAAAAAAAAAAAAAAAAAAAAAAAAAAAAAAAAAAAAAAAAAAAAAAAAAAAAAAAAAAAAAAAAAAAAAAAAAAAAAAAAAAAAAAAAAAAAAAAAAAAAAAAAAAAAAAAAAAAAAAAAAAAAAAAAAAAAAAAAAAAAAAAAAAAAAAAAAAAAAAAAAAAAAAAAAAAAAAAAAAAAAAAAAAAAAAAAAAAAAAAAAAAAAAAAAAAAAAAAAAAAAAAAAAAAAAAAAAAAAAAAAAAAAAAAAAAAAAAAAAAAAAAAAAAAAAAAAAAAAAAAAAAAAAAAAAAAAAAAAAAAAAAAAAAAAAAAAAAAAAAAAAAAAAAAAAAAAAAAAAAAAAAAAAAAAAAAAAAAAAAAAAAAAAAAAAAAAAAAAAAAAAAAAAAAAAAAAAAAAAAAAAAAAAAAAAAAAAAAAAAAAAAAAAAAAAAAAAAAAAAAAAAAAAAAAAAAAAAAAAAAAAAAAAAAAAAAAAAAAAAAAAAAAAAAAAAAAAAAAAAAAAAAAAAAAAAAAAAAAAAAAAAAAAAAAAAAAAAAAAAAAAAAAAAAAAAAAAAAAAAAAAAAAAAAAAAAAAAAAAAAAAAAAAAAAAAAAAAAAAAAAAAAAAAAAAAAAAAAAAAAAAAAAAAAAAAAAAAAAAAAAAAAAAAAAAAAAAAAAAAAAAAAAAAAAAAAAAAAAAAAAAAAAAAAAAAAAAAAAAAAAAAAAAAAAAAAAAAAAAAAAAAAAAAAAAAAAAAAAAAAAAAAAAAAAAAAAAAAAAAAAAAAAAAAAAAAAAAAAAAAAAAAAAAAAAAAAAAAAAAAAAAAAAAAAAAAAAAAAAAAAAAAAAAAAAAAAAAAAAAAAAAAAAAAAAAAAAAAAAAAAAAAAAAAAAAAAAAAAAAAAAAAAAAAAAAAAAAAAAAAAAAAAAAAAAAAAAAAAAAAAAAAAAAAAAAAAAAAAAAAAAAAAAAAAAAAAAAAAAAAAAAAAAAAAAAAAAAAAAAAAAAAAAAAAAAAAAAAAAAAAAAAAAAAAAAAAAAAAAAAAAAAAAAAAAAAAAAAAAAAAAAAAAAAAAAAAAAAAAAAAAAAAAAAAAAAAAAAAAAAAAAAAAAAAAAAAAAAAAAAAAAAAAAAAAAAAAAAAAAAAAAAAAAAAAAAAAAAAAAAAAAAAAAAAAAAAAAAAAAAAAAAAAAAAAAAAAAAAAAAAAAAAAAAAAAAAAAAAAAAAAAAAAAAAAAAAAAAAAAAAAAAAAAAAAAAAAAAAAAAAAAAAAAAAAAAAAAAAAAAAAAAAAAAAAAAAAAAAAAAAAAAAAAAAAAAAAAAAAAAAAAAAAAAAAAAAAAAAAAAAAAAAAAAAAAAAAAAAAAAAAAAAAAAAAAAAAAAAAAAAAAAAAAAAAAAAAAAAAAAAAAAAAAAAAAAAAAAAAAAAAAAAAAAAAAAAAAAAAAAAAAAAAAAAAAAAAAAAAAAAAAAAAAAAAAAAAAAAAAAAAAAAAAAAAAAAAAAAAAAAAAAAAAAAAAAAAAAAAAAAAAAAAAAAAAAAAAAAAAAAAAAAAAAAAAAAAAAAAAAAAAAAAAAAAAAAAAAAAAAAAAAAAAAAAAAAAAAAAAAAAAAAAAAAAAAAAAAAAAAAAAAAAAAAAAAAAAAAAAAAAAAAAAAAAAAAAAAAAAAAAAAAAAAAAAAAAAAAAAAAAAAAAAAAAAAAAAAAAAAAAAAAAAAAAAAAAAAAAAAAAAAAAAAAAAAAAAAAAAAAAAAAAAAAAAAAAAAAAAAAAAAAAAAAAAAAAAAAAAAAAAAAAAAAAAAAAAAAAAAAAAAAAAAAAAAAAAAAAAAAAAAAAAAAAAAAAAAAAAAAAAAAAAAAAAAAAAAAAAAAAAAAAAAAAAAAAAAAAAAAAAAAAAAAAAAAAAAAAAAAAAAAAAAAAAAAAAAAAAAAAAAAAAAAAAAAAAAAAAAAAAAAAAAAAAAAAAAAAAAAAAAAAAAAAAAAAAAAAAAAAAAAAAAAAAAAAAAAAAAAAAAAAAAAAAAAAAAAAAAAAAAAAAAAAAAAAAAAAAAAAAAAAAAAAAAAAAAAAAAAAAAAAAAAAAAAAAAAAAAAAAAAAAAAAAAAAAAAAAAAAAAAAAAAAAAAAAAAAAAAAAAAAAAAAAAAAAAAAAAAAAAAAAAAAAAAAAAAAAAAAAAAAAAAAAAAAAAAAAAAAAAAAAAAAAAAAAAAAAAAAAAAAAAAAAAAAAAAAAAAAAAAAAAAAAAAAAAAAAAAAAAAAAAAAAAAAAAAAAAAAAAAAAAAAAAAAAAAAAAAAAAAAAAAAAAAAAAAAAAAAAAAAAAAAAAAAAAAAAAAAAAAAAAAAAAAAAAAAAAAAAAAAAAAAAAAAAAAAAAAAAAAAAAAAAAAAAAAAAAAAAAAAAAAAAAAAAAAAAAAAAAAAAAAAAAAAAAAAAAAAAAAAAAAAAAAAAAAAAAAAAAAAAAAAAAAAAAAAAAAAAAAAAAAAAAAAAAAAAAAAAAAAAAAAAAAAAAAAAAAAAAAAAAAAAAAAAAAAAAAAAAAAAAAAAAAAAAAAAAAAAAAAAAAAAAAAAAAAAAAAAAAAAAAAAAAAAAAAAAAAAAAAAAAAAAAAAAAAAAAAAAAAAAAAAAAAAAAAAAAAAAAAAAAAAAAAAAAAAAAAAAAAAAAAAAAAAAAAAAAAAAAAAAAAAAAAAAAAAAAAAAAAAAAAAAAAAAAAAAAAAAAAAAAAAAAAAAAAAAAAAAAAAAAAAAAAAAAAAAAAAAAAAAAAAAAAAAAAAAAAAAAAAAAAAAAAAAAAAAAAAAAAAAAAAAAAAAAAAAAAAAAAAAAAAAAAAAAAAAAAAAAAAAAAAAAAAAAAAAAAAAAAAAAAAAAAAAAAAAAAAAAAAAAAAAAAAAAAAAAAAAAAAAAAAAAAAAAAAAAAAAAAAAAAAAAAAAAAAAAAAAAAAAAAAAAAAAAAAAAAAAAAAAAAAAAAAAAAAAAAAAAAAAAAAAAAAAAAAAAAAAAAAAAAAAAAAAAPZYQMxhI809WFGNr7FOaUp9tYC+cLjUIgnpJA9LMTxyXprK8HdN/4I2tuM8qxKNp4+1taS/cmgXa1EFcGxVsYf6Cf8=</c2pa:manifest></metadata>
  <path d="M51,0c.13.44,1.66,1.47,2.26,1.73l23.94,10.4-3.15,5.76-23.8-10.37-7.44,6.63c-1.76-1.16-4.4-3.37-4.94-4.15L47.94,0h3.06Z"/>
  <path d="M817,206h-16l-7.16-2.43.92-6.42c9.78,2.42,17.41,2.29,27.33.73.8,1.83.44,6.01-1.15,6.48l-3.94,1.64Z"/>
  <path d="M1397,82.9v5.1l-7.53,1.44c-4.77,1.13-9.67.57-11.62-4.12l15.39-3.78c1.04-.26,3.46.93,3.76,1.36Z"/>
  <path d="M587.9,154.25c-.96-10.14-1.01-18.14-.35-28.09-5.8.48-10.97,1.95-16.81,4.36l-9.24-5.29,3.65-4.04c.86-.95,3.95.8,5.28,1.87l11.96-3c3.3-.83,11.22.28,11.28,5l.34,24.78,5.14,3.54-3.59,4.93-7.67-4.05Z"/>
  <polygon points="277.65 67.93 251.01 77.7 241.89 74.55 244.41 68.68 251.39 70.62 279.84 60.19 292.08 75.65 287.3 80.14 277.65 67.93"/>
  <path d="M1060.15,140.22c-1.51,1.83-5.07,5.87-7.39,6.3-10.87,2.01-21.02-.75-31.13-4.31-5.03-1.78-8.78-2.38-14.8-2.45l.49-6.55c13.76-.37,23.25,7.31,40.79,7.77,2.97.08,6.03-3.5,8.44-6.06l3.6,5.3Z"/>
  <path d="M918.4,141.75l-3.82,7.72c-1.29-.96-3.42-3.12-4-4.43-2.93-6.66,11.72-14.45,23.37-15.82l16.63.21.39,6.66-14.08-.78c-6.09-.34-12.76,3.73-18.49,6.45Z"/>
  <path d="M999.15,139.26l-39.02-2.56c-1.88-.12-3.01-5.96-1.44-6.52l40.46,2.44c1.04,1.43.92,4-.01,6.64Z"/>
  <path d="M378.73,140.36c-.35-1.66.56-4.78,1.58-7.02l37.57-8.02v6.81s-39.15,8.24-39.15,8.24Z"/>
  <path d="M29.01,49.6c-2.4,0-5.41-.71-6.68-1.58l-1.29-22.43c3.41-3.64,7.41-7.31,11.74-11.06l5.06,4.32-9.93,8.48,1.11,22.26Z"/>
  <path d="M189.76,32.39l-8.57.76.07-6.59,10.48-1.23,20.24,20.23c1.09,1.09-2.2,4.85-4.2,4.75l-18.01-17.93Z"/>
  <path d="M320.28,108.62l-22.66-16.38c-1.84-1.33-4-4.18-5.95-6.32l4.77-4.87c2.85,3.74,5.24,6.31,8.77,8.81l18.84,13.31c.51,1.56-1.52,4.27-3.78,5.45Z"/>
  <polygon points="745.58 193.66 712.87 185.81 714.04 179.4 747.91 187.51 745.58 193.66"/>
  <polygon points="785.61 202.44 753.57 195.68 755.82 189.55 786.75 196.17 785.61 202.44"/>
  <polygon points="631.46 172.28 612.34 167.47 601.84 161.91 605.68 156.62 614.48 161.31 634.33 166.35 631.46 172.28"/>
  <path d="M1266.71,149.35l-30.33,4.62c-.28-.21-.16-3.55.25-4.73.46-1.33,3.09-2.52,4.76-2.77l25.23-3.82.09,6.7Z"/>
  <polygon points="1132.16 100.06 1122.27 102.3 1122.31 95.62 1132 93.23 1153.18 99.08 1150.64 105.19 1132.16 100.06"/>
  <polygon points="459.79 119.4 459.08 112.91 489.58 110.26 490.01 116.79 459.79 119.4"/>
  <path d="M669.09,179.17c-10.33-.4-19.33-2.46-29.28-4.99l1.56-6.17,29.66,5.3c1.37.62-.35,5.78-1.94,5.85Z"/>
  <path d="M861.11,198.76l-29.69,4.61c-.32-1.79-.36-4.91-.14-6.72l28.12-4.15,1.71,6.26Z"/>
  <path d="M146.09,36.34c-1.6-.14-1.63-5.75-.14-6.48l27.07-2.58c1.29,1.19,1.26,5.22-.19,6.54l-26.74,2.51Z"/>
  <path d="M1226.5,154.47c-9.82-4.46-10.25-15.4-17.55-20.19l2.63-5.46c8.55,2.5,8,11.96,17.15,19.72.75,1.24-.46,4.97-2.23,5.94Z"/>
  <path d="M1092.48,114.14l-4.02-5.12c2.99-2.43,6.18-6.38,9.12-7.15l17.97-4.72-.54,6.77-14.49,3.9c-2.29.62-4.68,3.67-8.04,6.32Z"/>
  <polygon points="554.88 120.77 541.92 112.77 532.16 113.12 532 107.23 543.23 105.71 559.53 115.87 554.88 120.77"/>
  <path d="M1066.11,135.52c-1.42-1.63-2.48-3.45-3.47-5.64l21.34-17.53,3.25,5.79-21.13,17.38Z"/>
  <path d="M235.41,71.74c-1.98.09-6.85-.88-8.2-2.19l-14.23-13.84,4.08-5.11,12.78,12.79,8.19,2.99c.23.98-1.22,5.29-2.62,5.35Z"/>
  <path d="M704.02,183.33l-27-3.05,2.04-6.45,25.91,3.12c1.21,1.45.41,5-.95,6.37Z"/>
  <polygon points="869.64 197.43 868.01 191.13 878.92 189.1 889.55 180.01 894.63 184.14 881.54 195.5 869.64 197.43"/>
  <polygon points="450.81 120.12 426.07 128.75 424.85 122.22 450.61 113.3 450.81 120.12"/>
  <path d="M1356.71,97.81l-7.89,4.53-4.31-4.65c7.08-6.35,23.08-11.01,25.35-9.28,1.06.8,2.43,2.75,3.59,4.58l-16.74,4.82Z"/>
  <path d="M371.59,135.88l-4.69,7.8-20.99-16.07,4.1-5.09,16.06,12.37c.84.65,2.65.73,5.51.98Z"/>
  <path d="M903.4,176.08c-.37.87-2.22,2.73-3.11,2.78s-2.75-.91-3.43-1.56l-1.81-1.77c-.35-.34,1.52-1.39,2.01-1.6l9.84-22.5,4.58,5.78-8.08,18.88Z"/>
  <path d="M1274.72,148.47c-.39-1.41-.67-4.18-.77-6.45l25.2-2.98,1.83,6.47-26.26,2.97Z"/>
  <path d="M523.98,114.02l-24.94,2.04c-1.01-1.53-1.2-4.81-.38-6.54l24.89-1.95.43,6.46Z"/>
  <path d="M104.96,28.53c-8.87-1.93-15.93-4.01-24.2-7.46l2.37-6.04c8.21,3.33,14.95,5.28,23.97,7.52l-2.15,5.99Z"/>
  <polygon points="136.4 36.96 112.01 30.39 114.79 24.46 137.08 30.32 136.4 36.96"/>
  <polygon points="1200.86 129.57 1183.93 119.26 1186.91 113.27 1205.34 124.49 1200.86 129.57"/>
  <path d="M1308.13,141.18c-1.16-2.48-2.05-5.52-2.03-7.72l12.43-14.66,3.73,5.85-14.13,16.53Z"/>
  <path d="M1177.08,114.93l-18.88-7.85c.16-1.12,1.53-4.22,2.72-5.67,7.1,2.01,13.07,4.84,19.4,8.18l-3.23,5.34Z"/>
  <path d="M1328.39,117.04c-.92-.12-3.28-2.37-4.54-4.06,3.46-5.78,7.9-8.76,14.17-11.35,1.25,1.58,2.8,4.43,2.8,5.52-5.23,2.98-8.01,4.78-12.43,9.89Z"/>
  <polygon points="339.54 122.61 326.48 112.89 330.04 107.21 344.29 118.19 339.54 122.61"/>
  <path d="M22.09,110.37l-5.53-4.18c4.29-4.33,5.36-6.45,5.34-13.14l5.33,2.78c1.36.71,1.2,5.61.3,6.88l-5.45,7.67Z"/>
  <polygon points="7.18 128.6 3 123.55 12.5 111.5 17.34 115.85 7.18 128.6"/>
  <path d="M28.63,88.31c-4.49-.29-6.07-2.8-5.88-6.17l.62-11.05,6.82,1.8-1.56,15.43Z"/>
  <path d="M29.81,65.04c-1.14.39-5.8-.18-6.13-1.63-.47-2.07-.63-4.98-.81-8.14l7.03,1.76-.09,8.02Z"/>
  </svg>